<svg version="1.0" xmlns="http://www.w3.org/2000/svg" width="512" height="512" viewBox="0 0 512 512">
<g transform="translate(0,512) scale(0.1,-0.1)" fill="#000000" stroke="none">
<path d="M2380 5114 c-19 -2 -78 -9 -130 -15 -311 -35 -644 -142 -925 -297 -863 -476 -1406 -1352 -1406 -2267 0 -915 543 -1791 1406 -2267 281 -155 614 -262 925 -297 52 -6 111 -13 130 -15 19 -2 91 -6 160 -10 69 -4 141 -4 160 0 19 4 91 8 160 10 69 4 141 4 160 0 19 -4 91 -8 160 -10 69 -4 141 -4 160 0 19 4 91 8 160 10 311 35 644 142 925 297 863 476 1406 1352 1406 2267 0 915 -543 1791 -1406 2267 -281 155 -614 262 -925 297 -52 6 -111 13 -130 15 -19 2 -91 6 -160 10 -69 4 -141 4 -160 0z"/>
</g>
</svg>